<svg xmlns="http://www.w3.org/2000/svg" viewBox="0 0 250 250" xmlns:v="https://vecta.io/nano"><path d="M.08 0h250v250H.08z" fill="#d1b0c1"/><g fill="#e7cdd8"><use href="#B"/><use href="#C"/><use href="#D"/><use href="#E"/><use href="#F"/><use href="#G"/><use href="#H"/><use href="#I"/><use href="#C" x="62.62" y="-124.86"/><use href="#I" x="62.63" y="125.14"/><use href="#J"/><use href="#B" x="125.25"/><use href="#F" x="62.62" y="125.14"/><path d="M127.68,240.54c-.79-2.42-2.8-4.01-4.48-3.53s-2.42,2.8-1.63,5.22c.83,2.39,2.73,3.99,4.44,3.55,1.63-.45,2.42-2.8,1.68-5.25h0Z"/><use href="#C" x="125.25"/><use href="#D" x="125.25"/><use href="#E" x="125.25"/><use href="#F" x="125.25"/><use href="#G" x="125.25"/><use href="#H" x="125.25"/><use href="#I" x="125.25"/><use href="#J" x="125.25"/><use href="#F" x="187.87" y="125.14"/><path d="M.6 94.88l1.78 1.3c.26.19.58.21.83.07.02-.01.05-.03.07-.04.27-.2.37-.56.25-.91-.89-2.59-2.04-6.23-2.51-8.97l.53-.31a1.57 1.57 0 0 0 .26-.19c2.13 1.77 4.73 4.61 6.53 6.68.24.28.6.38.91.24.03-.01.05-.02.07-.04.25-.15.39-.43.36-.75l-.23-2.19c-.01-.12.02-.26.12-.29l1.94-.62c.26-.08.43-.3.48-.57a.89.89 0 0 0-.37-.86c-2.74-1.99-4.96-3.21-6.41-3.92.57 0 1.11.05 1.59.08 1.12.08 2.12.15 2.84-.27.59-.34 1-1.01 1.16-2.27.14-1.17-.06-2.48-.58-3.79a11.26 11.26 0 0 0-2-3.23c-1.19-1.33-2.47-2.08-3.52-2.08h0 0c-.32 0-.64.08-.93.24-.8.46-1.71 1.42-2.56 2.69h0c-.42.63-.8 1.3-1.13 1.97V95l.2-.19c.08-.07.22-.03.32.04zm4.05 81.07c1.29-.83 2.48-1.94 2.89-2.35 1.08-1.07 1.97-2.35 2.48-3.71.34-.92.44-1.8.35-2.63l1.33-.36c.22-.06.35-.28.29-.5s-.28-.35-.5-.29l-1.26.34c-.1-.39-.23-.78-.4-1.15l1.43-.6a.41.41 0 0 0 .22-.54.42.42 0 0 0-.54-.22l-1.49.62-.58-.9 1.22-1.08c.17-.15.19-.41.04-.58s-.41-.18-.58-.04l-1.19 1.05c-.77-.87-1.76-1.59-2.88-2.1-.87-1.73-3.38-6.31-5.26-6.35-.05 0-.09.01-.14.02v23.35l1.35-.42a17.78 17.78 0 0 0 3.21-1.59zM4.78 8.94c1.9-.73 5.18-.36 6.86-2.31C12.91 5.16 10.49 2.05 8.01 0H.08v13.56c1.66-.79 2.98-3.97 4.7-4.63zM.08 247.66v2.35h7.93c-.81-.66-1.62-1.22-2.32-1.57-2.05-.96-3.89-1.38-5.61-.78zm.68-1.88c1.63-.45 2.42-2.8 1.68-5.25h-.01c-.47-1.42-1.36-2.54-2.35-3.13v8.45c.23 0 .46 0 .68-.07zM120.58 7.61c.38 3.63 2.28 6.39 4.21 6.13s3.34-4.07 5.24-4.8 5.18-.36 6.86-2.31c1.27-1.47-1.15-4.58-3.63-6.62H122.4c-1.16 1.73-2.13 4.64-1.82 7.6zM123.19 249h.01c-.27.26-.54.61-.8 1.01h10.86c-.81-.66-1.62-1.22-2.32-1.57-2.93-1.37-5.42-1.64-7.75.56zM248.08 79.15l-.6.35c-.43.25-.71.66-.84 1.16-2.06-.47-4.79-.48-6.68.01-.09.02-.18.05-.28.08l-.3.1c-.3.1-.58.23-.82.36-.29.16-.52.41-.7.72-.05.09-.09.18-.13.27-.56 1.37-.11 3.72 1.11 5.85l.29.47.32.47.58.74c.8.92 1.7 1.59 2.67 2 .23.1.43.17.6.22.78.24 1.41.21 1.95-.1.21-.12.41-.29.59-.5.4-.46.7-1.09 1.06-1.83l.91-1.74c-.13 1.59-.21 4.23.16 7.81.03.34.26.63.56.75a.69.69 0 0 0 .73-.13l.8-.73V78l-.37 1.07c-.55-.21-1.14-.2-1.63.08zm.13 81.08l-.13.92a13.44 13.44 0 0 0-1.79.97 12.92 12.92 0 0 0-1.61 1.23l-.89-.26c-1.41-.42-5.59-1.42-6.18-.04-.74 1.73 2.41 5.9 3.62 7.41 0 1.23.25 2.43.73 3.49l-1.45.66c-.2.1-.3.34-.2.54.09.21.34.3.54.2l1.48-.67.58.9-1.18 1.1c-.17.15-.18.41-.02.58a.4.4 0 0 0 .52.06c.02-.01.04-.03.06-.04l1.13-1.06c.27.3.56.59.89.84l-.83 1.01c-.14.17-.12.43.05.58.17.14.43.12.58-.05l.88-1.06c.72.42 1.56.7 2.54.76.83.06 1.69-.03 2.55-.2v-23.22c-1.1.94-1.7 4.15-1.87 5.38zM245.83 7.61c.38 3.63 2.28 6.39 4.21 6.13h.04V0h-2.43c-1.16 1.73-2.13 4.64-1.82 7.6zm4.25 240.25c-.56.26-1.1.63-1.64 1.14h.01c-.27.26-.54.61-.8 1.01h2.43v-2.14zm-1.63-10.85c-1.68.48-2.42 2.8-1.63 5.22.64 1.85 1.92 3.21 3.26 3.54v-8.62c-.54-.22-1.1-.29-1.63-.14z"/></g><defs ><path id="B" d="M7.76,240.34c-1.3-.23-2.54,1.1-2.79,3.02-.24,1.91.65,3.66,1.99,3.87,1.32.28,2.62-1.08,2.86-3,.2-1.89-.69-3.64-2.06-3.89Z"/><path id="C" d="M74.25 212.28c-2.74-1.99-4.96-3.21-6.41-3.92.57 0 1.11.05 1.59.08 1.12.08 2.12.15 2.84-.27.59-.34 1-1.01 1.16-2.27.14-1.17-.06-2.48-.58-3.79a11.26 11.26 0 0 0-2-3.23c-1.19-1.33-2.47-2.08-3.52-2.08h0 0c-.32 0-.64.08-.93.24-.8.46-1.71 1.42-2.56 2.69h0c-.89 1.33-1.61 2.85-2 4.17-.55-.21-1.14-.2-1.63.08l-.6.35c-.43.25-.71.66-.84 1.16-2.06-.47-4.79-.48-6.68.01-.09.02-.18.05-.28.08l-.3.1c-.3.1-.58.23-.82.36-.29.16-.52.41-.7.72-.05.09-.09.18-.13.27-.56 1.37-.11 3.72 1.11 5.85l.29.47.32.47.58.74c.8.92 1.7 1.59 2.67 2 .23.1.43.17.6.22.78.24 1.41.21 1.95-.1.21-.12.41-.29.59-.5.4-.46.7-1.09 1.06-1.83l.91-1.74c-.13 1.59-.21 4.23.16 7.81.03.34.26.63.56.75a.69.69 0 0 0 .73-.13l1.5-1.37c.08-.07.22-.03.32.04l1.78 1.3c.26.19.58.21.83.07.02-.01.05-.03.07-.04.27-.2.37-.56.25-.91-.89-2.59-2.04-6.23-2.51-8.97l.53-.31a1.57 1.57 0 0 0 .26-.19c2.13 1.77 4.73 4.61 6.53 6.68.25.28.6.38.91.24.03-.01.05-.02.07-.04.25-.15.39-.43.36-.75l-.23-2.19c-.01-.12.02-.26.12-.29l1.94-.62c.26-.08.43-.3.48-.57a.89.89 0 0 0-.37-.86z"/><path id="D" d="M60.58 123.86c-1.46 1.39-3 4.97-2.62 8.61.38 3.63 2.28 6.39 4.21 6.13s3.34-4.07 5.24-4.8 5.18-.36 6.86-2.31-3.11-6.77-5.95-8.19c-2.93-1.37-5.42-1.64-7.75.56h0z"/><path id="E" d="M70.39,115.2c-1.3-.23-2.54,1.1-2.79,3.02-.24,1.91.65,3.66,1.99,3.87,1.32.28,2.62-1.08,2.86-3,.2-1.89-.69-3.64-2.06-3.89Z"/><path id="F" d="M58.01 123.75c1.23-1.26.73-3.72-1.13-5.46s-4.31-2.16-5.49-.93-.68 3.7 1.18 5.44 4.22 2.22 5.44.95h0z"/><path id="G" d="M53.72,126.17c-1.75-.7-3.6-.19-4,1.02s.6,2.84,2.35,3.54,3.53.29,4.02-.98c.45-1.24-.62-2.88-2.37-3.58Z"/><path id="H" d="M65.06,115.4c-.79-2.42-2.8-4.01-4.48-3.53s-2.42,2.8-1.63,5.22c.83,2.39,2.73,3.99,4.44,3.55,1.63-.45,2.42-2.8,1.68-5.25h0Z"/><path id="I" d="M74.61 41.25c-.06-.22-.28-.35-.5-.29l-1.26.34c-.1-.39-.23-.78-.4-1.15l1.43-.6a.41.41 0 0 0 .22-.54.42.42 0 0 0-.54-.22l-1.49.62-.58-.9 1.22-1.08c.17-.15.19-.41.04-.58s-.41-.18-.58-.04l-1.19 1.05c-.77-.87-1.76-1.59-2.88-2.1-.87-1.73-3.38-6.31-5.26-6.35-1.5-.03-2.31 4.19-2.51 5.65l-.13.92a13.44 13.44 0 0 0-1.79.97 12.92 12.92 0 0 0-1.61 1.23l-.89-.26c-1.41-.42-5.59-1.42-6.18-.04-.74 1.73 2.41 5.9 3.62 7.41 0 1.23.25 2.43.73 3.49l-1.45.66c-.2.1-.3.34-.2.54.09.21.34.3.54.2l1.48-.67.58.9-1.18 1.1c-.17.15-.18.41-.02.58a.4.4 0 0 0 .52.06c.02-.01.04-.03.06-.04l1.13-1.06c.27.3.56.59.89.84l-.83 1.01c-.14.17-.12.43.05.58.17.14.43.12.58-.05l.88-1.06c.72.42 1.56.7 2.54.76 1.45.1 2.98-.19 4.4-.73a17.78 17.78 0 0 0 3.21-1.59c1.29-.83 2.48-1.94 2.89-2.35 1.08-1.07 1.97-2.35 2.48-3.71.34-.92.44-1.8.35-2.63l1.33-.36c.22-.06.35-.28.29-.5z"/><path id="J" d="M116.34,1.31c-1.75-.7-3.6-.19-4,1.02s.6,2.84,2.35,3.54,3.53.29,4.02-.98c.45-1.24-.62-2.88-2.37-3.58Z"/></defs></svg>